<svg width="735" height="359" viewBox="0 0 735 359" fill="none" xmlns="http://www.w3.org/2000/svg">
<path d="M610.832 151.798C613.443 166.635 631.219 164.895 639.83 154.158C642.788 150.443 644.659 146.172 644.956 141.738C645.466 134.474 638.817 126.755 632.135 128.048C621.346 130.093 608.585 138.973 610.832 151.798ZM595.06 119.266C599.351 133.64 617.215 130.056 624.811 118.511C627.412 114.562 628.859 110.123 628.687 105.721C628.434 98.482 620.875 91.5885 614.206 93.5499C603.464 96.6788 591.427 106.857 595.06 119.266ZM555.842 75.6128C554.419 68.7403 544.687 65.0688 538.091 68.1413C534.085 70.0053 530.801 73.3002 528.477 77.4553C521.806 89.5787 527.092 107.247 541.945 104.516C554.69 102.213 558.095 86.7261 555.842 75.6128ZM577.386 107.651C589.882 106.534 594.897 91.4646 594.011 80.1896C593.433 73.2125 584.546 68.6208 577.882 71.077C573.857 72.5395 570.337 75.5625 567.643 79.4701C559.876 90.8643 562.894 108.985 577.386 107.651ZM593.562 170.877C600.385 158.476 594.06 143.462 587.655 134.879C578.093 122.092 560.071 115.538 542.671 121.457C535.674 123.84 524.095 128.825 521.587 137.095C518.18 148.464 533.098 154.412 540.673 156.88C549.712 159.749 557.189 161.761 562.736 169.727L563.322 170.58C570.6 180.397 583.886 188.52 593.562 170.877ZM547.608 233.786C545.173 227.416 535.12 225.864 529.211 230.113C525.633 232.694 522.967 236.548 521.386 241.012C516.785 253.976 524.669 270.008 538.666 264.399C550.737 259.544 551.548 244.008 547.608 233.786ZM574.611 260.644C587.07 257.2 589.38 241.612 586.386 230.819C584.545 224.14 574.703 221.335 568.391 224.921C564.58 227.096 561.572 230.677 559.593 234.972C553.783 247.5 560.136 264.586 574.611 260.644ZM645.26 295.177C647.558 290.995 648.632 286.495 648.125 282.1C647.257 274.877 639.005 268.545 632.408 270.963C621.785 274.896 610.401 285.942 615.176 298.012C620.677 312.06 638.497 307.232 645.26 295.177ZM593.806 269.533C600.302 282.544 617.307 275.561 622.891 262.936C624.804 258.6 625.518 254 624.647 249.799C623.212 242.859 614.63 237.711 608.393 240.911C598.348 246.125 588.172 258.317 593.806 269.533ZM600.367 306.293C596.235 288.405 581.133 276.544 565.247 275.151C554.568 274.23 538.502 276.764 531.546 289.11C521.658 306.642 535.567 313.64 547.73 314.63L548.785 314.689C558.456 315.218 564.12 320.498 571.305 326.676C577.387 331.817 590.339 341.365 598.167 332.459C603.917 325.974 602.024 313.491 600.367 306.293Z" fill="#F7EEE4"/>
<path d="M111.753 86.0201C124.25 94.4334 135.329 80.4239 133.571 66.7736C132.947 62.0659 131.17 57.7553 128.183 54.4656C123.305 49.0584 113.133 48.4912 109.428 54.2009C103.415 63.3893 100.958 78.7412 111.753 86.0201ZM77.3815 74.8087C90.7104 81.6906 100.523 66.3387 97.4788 52.8586C96.439 48.2454 94.2459 44.1239 90.9562 41.1934C85.5679 36.3534 75.3585 37.0151 72.1445 43.1786C66.9453 53.0854 65.9243 68.8154 77.3815 74.8087ZM18.7343 72.7668C12.7977 69.0234 3.40134 73.4853 1.03806 80.3671C-0.398812 84.5454 -0.304281 89.1964 1.07588 93.7528C5.17853 106.968 21.5702 115.419 29.9079 102.828C37.0923 92.0512 28.3009 78.8546 18.7343 72.7668ZM56.7548 79.4786C64.6198 69.704 57.2463 55.6378 48.5117 48.4534C43.0856 44.0293 33.6135 47.2434 30.7587 53.7472C29.0193 57.6607 28.7546 62.2928 29.6999 66.9437C32.517 80.4428 47.6609 90.8412 56.7548 79.4786ZM113.511 111.695C109.314 98.1768 94.1135 92.3159 83.4882 90.9735C67.6448 88.9884 50.4212 97.4206 42.6129 114.058C39.4745 120.751 35.0315 132.548 39.2476 140.092C45.0707 150.434 59.7042 143.817 66.7373 140.073C75.0749 135.554 81.711 131.565 91.2965 133.097L92.3174 133.267C104.436 134.836 119.505 130.904 113.511 111.695ZM126.935 188.435C120.658 185.769 112.566 191.933 111.526 199.136C110.902 203.504 111.829 208.098 113.946 212.333C120.091 224.641 137.106 230.086 142.778 216.114C147.656 204.052 137.031 192.689 126.935 188.435ZM165.012 187.622C171.175 176.26 161.552 163.782 151.702 158.45C145.614 155.141 136.766 160.284 134.97 167.317C133.892 171.571 134.384 176.222 136.104 180.627C141.096 193.502 157.809 200.781 165.012 187.622ZM238.898 160.7C237.48 156.143 234.984 152.249 231.467 149.564C225.663 145.178 215.378 146.728 212.542 153.156C208.005 163.536 208.062 179.398 220.067 184.333C234.001 190.118 242.887 173.934 238.898 160.7ZM184.731 179.965C198.608 184.314 205.377 167.222 200.159 154.442C198.363 150.056 195.546 146.35 191.916 144.062C185.922 140.281 176.261 142.89 174.238 149.602C171.024 160.454 172.745 176.241 184.731 179.965ZM215.756 200.743C200.007 191.309 180.988 193.956 168.963 204.43C160.89 211.482 151.57 224.811 155.634 238.386C161.401 257.67 176.091 252.509 185.242 244.436L186.017 243.717C193.107 237.119 200.839 236.703 210.274 235.814C218.195 235.001 234.058 232.298 233.074 220.481C232.394 211.841 222.09 204.543 215.756 200.743Z" fill="#F7EEE4"/>
<path d="M501.419 37.7687C499.777 35.9705 497.707 34.5206 495.359 33.5241C493.01 32.5275 490.443 32.0095 487.842 32.0075L264.989 31.4971L260.553 8.78836C260.08 6.36946 258.666 4.17603 256.559 2.59335C254.452 1.01068 251.787 0.13997 249.033 0.134177L202.17 0.0268355C199.063 0.0197183 196.081 1.11304 193.879 3.06627C191.677 5.0195 190.437 7.67265 190.431 10.4421C190.424 13.2115 191.653 15.8703 193.845 17.8336C196.038 19.7969 199.015 20.9038 202.122 20.9109L239.158 20.9958L272.205 189.96C272.678 192.378 274.092 194.572 276.199 196.155C278.306 197.737 280.97 198.608 283.725 198.614L471.175 199.043C474.282 199.05 477.264 197.957 479.466 196.004C481.668 194.05 482.908 191.397 482.914 188.628C482.921 185.859 481.692 183.2 479.5 181.236C477.307 179.273 474.33 178.166 471.223 178.159L293.599 177.752L289.517 156.859L466.467 157.264C470.53 157.269 474.469 156.022 477.618 153.735C480.767 151.448 482.932 148.261 483.747 144.714L505.051 50.784C505.564 48.5108 505.504 46.164 504.876 43.9132C504.248 41.6625 503.068 39.5638 501.419 37.7687Z" fill="#41403E"/>
</svg>
